@startuml Diagrama de Clases - Primera Reunión
top to bottom direction
hide methods
hide attributes
skinparam classAttributeIconSize 0

' Nivel 1: Tarea
package "Nivel 1" {
  class Tarea
}

' Nivel 2: Usuario
package "Nivel 2" {
  class Usuario
}

' Nivel 3: Grupo
package "Nivel 3" {
  class Grupo
}

' Nivel 4: Resto de clases
package "Nivel 4" {
  class ConflictoHorario
  class Localizacion
  class Horario
  class Recordatorio
  class RelacionTareas
}

' Relaciones principales
Grupo *-- Tarea : es gestionada <
Usuario o-- Tarea : participa en >
Usuario o-- Grupo : pertenece a >
Tarea *-- Tarea : subtarea de >

' Relaciones con el resto
Tarea <-- ConflictoHorario : afecta a <
Usuario <-- ConflictoHorario : notifica a <
Tarea --> Localizacion : se realiza en >
Tarea --> Horario : se programa en >
Tarea --> Recordatorio : notifica >
Tarea --> RelacionTareas : se relaciona con >

@enduml
