@startuml DiagramaContextoTiempo
left to right direction
skinparam linetype polyline

state "SISTEMA_DISPONIBLE" as Menu

state "AUTOMATIZACION_ACTIVA" as Auto
state "CONFLICTO_ABIERTO" as Conflict

[*] --> Menu

Menu --> Auto: iniciarAutomatizacion()

Auto --> Conflict: detectarConflicto()

Conflict --> Auto: ignorarConflicto()
Conflict --> Auto: resolverConflicto()

Auto --> Menu: volverAInicio()
@enduml