@startuml
hide empty description


skinparam state {
    BackgroundColor White
    BorderColor Black
    ArrowColor Green
}
skinparam note {
    BackgroundColor LightYellow
    BorderColor Gray
}


state CONFLICTO_ABIERTO

state "ignorarConflicto()" as MainBlock {
    
    [*] --> Paso1
    note on link
        **Usuario** visualiza el conflicto
        Decide descartar la alerta
    end note

    state Paso1 as " "
    
    Paso1 --> Paso2
    note on link
        **Sistema** solicita confirmación (opcional)
        Cierra la vista de conflicto
    end note

    state Paso2 as " "

    Paso2 --> [*]
    note on link
        **Sistema** descarta la incidencia
        Mantiene los horarios actuales sin cambios
    end note
}


CONFLICTO_ABIERTO -down-> MainBlock

state AUTOMATIZACION_ACTIVA
MainBlock -down-> AUTOMATIZACION_ACTIVA

state eventoTiempo as "detectarConflicto()"
AUTOMATIZACION_ACTIVA -down-> eventoTiempo
eventoTiempo -up-> CONFLICTO_ABIERTO

state salir as "volverAInicio()"
state SISTEMA_DISPONIBLE
AUTOMATIZACION_ACTIVA -right-> salir
salir -up-> SISTEMA_DISPONIBLE

@enduml