@startuml DiagramaEstadosTarea
hide empty description

state "Creada" as Creada
state "Programada" as Programada
state "En ejecución" as EnEjecucion
state "Finalizada" as Finalizada
state "Cancelada" as Cancelada

[*] --> Creada
<<<<<<< HEAD:documents/modelosUML/modeloDeDominio/diagramaEstados/diagramaEstadosTarea.puml

Creada --> Programada : Asignar horario/localización
=======
Creada --> Programada : Asignar horarios/localizaciónes
>>>>>>> vaqueroIñigo:documents/modelosUML/modeloDeDominio/diagramaEstados/diagramaEstados.puml

Programada --> EnEjecucion : Iniciar tarea
Programada --> Cancelada : Cancelar tarea (con o sin conflicto)

EnEjecucion --> Finalizada : Completar tarea
EnEjecucion --> Cancelada : Cancelar tarea

Finalizada --> [*]
Cancelada --> [*]

@enduml